<svg width="218" height="24" viewBox="0 0 218 24" fill="none" xmlns="http://www.w3.org/2000/svg">
<path fill-rule="evenodd" clip-rule="evenodd" d="M69.4629 21.1011C69.4629 21.569 69.2271 21.8029 68.7557 21.8029H60.4509C60.2503 21.8029 60.0874 21.7444 59.962 21.6275C59.8366 21.5105 59.7739 21.3452 59.7739 21.1316C59.7739 20.9485 59.8165 20.801 59.9018 20.6891C59.9871 20.5772 60.12 20.4857 60.3005 20.4145L60.9474 20.2161C61.1079 20.1653 61.2333 20.0687 61.3235 19.9263C61.4138 19.7839 61.459 19.5804 61.459 19.316V10.4971C61.459 10.3547 61.4238 10.2352 61.3536 10.1386C61.2834 10.042 61.153 9.95296 60.9625 9.87158L60.0899 9.58169C59.8592 9.4698 59.6937 9.35029 59.5934 9.22314C59.4931 9.09599 59.4429 8.94088 59.4429 8.75779C59.4429 8.5747 59.5056 8.42467 59.631 8.30769L59.6802 8.26657C59.8004 8.17701 59.957 8.13223 60.15 8.13223H61.4702L61.4599 8.04307C61.4317 7.86475 61.3612 7.69358 61.2483 7.52956C61.0979 7.31087 60.9274 7.06421 60.7368 6.78957C60.5462 6.51494 60.3757 6.1869 60.2253 5.80547C60.0748 5.42403 59.9996 4.95359 59.9996 4.39415C59.9996 3.06167 60.4509 1.99619 61.3536 1.19771C62.2563 0.399237 63.5402 0 65.2051 0C66.2783 0 67.1685 0.172918 67.8756 0.518754C68.5827 0.86459 69.1118 1.32486 69.4629 1.89955C69.8139 2.47425 69.9894 3.10235 69.9894 3.78385C69.9894 4.58741 69.7813 5.19008 69.3651 5.59186C68.9488 5.99364 68.4147 6.19453 67.7628 6.19453C67.0406 6.19453 66.4589 5.96058 66.0176 5.49269C65.5762 5.02479 65.3556 4.40432 65.3556 3.63128V2.27336C65.3556 1.91736 65.2854 1.65544 65.145 1.4876C65.0045 1.31977 64.7889 1.23586 64.498 1.23586C64.1269 1.23586 63.8461 1.363 63.6555 1.61729C63.4649 1.87158 63.3697 2.23776 63.3697 2.71583C63.3697 3.20407 63.4825 3.66179 63.7082 4.089C63.9338 4.51621 64.2122 4.91545 64.5432 5.28671C64.8741 5.65798 65.2051 6.01399 65.5361 6.35474C65.8671 6.69549 66.1454 7.03115 66.3711 7.36173L66.4354 7.46083C66.5573 7.65887 66.6385 7.856 66.6792 8.05221L66.6929 8.13223H68.9212C69.1519 8.13223 69.33 8.18055 69.4553 8.27718C69.5807 8.37381 69.6434 8.52384 69.6434 8.72727C69.6434 9.03242 69.513 9.28163 69.2522 9.47489C68.9914 9.66815 68.5802 9.76478 68.0185 9.76478H66.9504V19.2702C66.9504 19.555 66.993 19.7737 67.0782 19.9263C67.1635 20.0788 67.3014 20.1704 67.492 20.2009L68.7858 20.3992C69.0165 20.4298 69.187 20.5035 69.2974 20.6205C69.4077 20.7374 69.4629 20.8976 69.4629 21.1011ZM39.8394 21.452C38.9367 21.8894 37.8835 22.1081 36.6799 22.1081C35.4061 22.1081 34.2652 21.8385 33.2572 21.2994C32.2492 20.7603 31.4543 19.9797 30.8726 18.9574C30.2909 17.9352 30 16.6917 30 15.227C30 13.8131 30.3034 12.5493 30.9102 11.4355C31.517 10.3217 32.3621 9.44183 33.4453 8.79593C34.5285 8.15003 35.7923 7.82708 37.2366 7.82708C38.4703 7.82708 39.5109 8.01017 40.3584 8.37635C41.206 8.74253 41.8529 9.2384 42.2992 9.86395C42.7456 10.4895 42.9687 11.1888 42.9687 11.9619C42.9687 12.7756 42.7355 13.4139 42.2691 13.8767C41.8027 14.3395 41.1684 14.5709 40.366 14.5709C39.5435 14.5709 38.9191 14.3344 38.4929 13.8614C38.0666 13.3884 37.8535 12.74 37.8535 11.9161V10.9396C37.8535 10.4412 37.7632 10.0648 37.5826 9.81055C37.4021 9.55626 37.1463 9.42912 36.8154 9.42912C36.4844 9.42912 36.186 9.56389 35.9202 9.83344C35.6544 10.103 35.4488 10.5073 35.3033 11.0464C35.1579 11.5855 35.0852 12.2517 35.0852 13.0451C35.0852 14.1844 35.2532 15.1405 35.5892 15.9135C35.9252 16.6866 36.3841 17.2664 36.9658 17.6529C37.5475 18.0394 38.2095 18.2327 38.9517 18.2327C39.694 18.2327 40.3158 18.1233 40.8173 17.9046C41.3188 17.686 41.705 17.3172 41.9758 16.7985C42.1262 16.6561 42.2441 16.5645 42.3293 16.5238C42.4146 16.4832 42.4973 16.4628 42.5776 16.4628C42.6779 16.473 42.7606 16.5213 42.8258 16.6078C42.891 16.6942 42.9186 16.829 42.9086 17.0121C42.8283 18.0089 42.5224 18.8887 41.9908 19.6516C41.4592 20.4145 40.7421 21.0146 39.8394 21.452ZM55.1326 21.1469C54.0042 21.7673 52.6928 22.0776 51.1983 22.0776C49.744 22.0776 48.4677 21.775 47.3694 21.1697C46.2711 20.5645 45.416 19.7279 44.8042 18.6599C44.1924 17.5919 43.8865 16.356 43.8865 14.9523C43.8865 13.6097 44.2074 12.4018 44.8493 11.3287C45.4913 10.2556 46.3789 9.40369 47.5123 8.77305C48.6457 8.1424 49.9496 7.82708 51.424 7.82708C52.8884 7.82708 54.1672 8.13223 55.2604 8.74253C56.3537 9.35283 57.2063 10.1971 57.8181 11.2753C58.4299 12.3535 58.7358 13.5995 58.7358 15.0134C58.7358 16.356 58.4174 17.5588 57.7805 18.6217C57.1436 19.6847 56.2609 20.5264 55.1326 21.1469ZM52.3417 20.4908C52.0308 20.5518 51.7274 20.4145 51.4315 20.0788C51.1356 19.7432 50.8548 19.1786 50.589 18.3853C50.3232 17.5919 50.0699 16.5493 49.8292 15.2575C49.5985 13.9657 49.4681 12.9027 49.4381 12.0687C49.408 11.2346 49.4681 10.6039 49.6186 10.1767C49.769 9.74952 49.9997 9.50032 50.3107 9.42912C50.6216 9.36809 50.925 9.5054 51.2209 9.84107C51.5168 10.1767 51.8001 10.7413 52.0709 11.5346C52.3417 12.328 52.5975 13.3706 52.8382 14.6624C53.0789 15.9542 53.2118 17.0197 53.2369 17.8589C53.262 18.698 53.1968 19.3312 53.0413 19.7584C52.8858 20.1856 52.6527 20.4298 52.3417 20.4908ZM79.2571 21.8029C79.7285 21.8029 79.9642 21.569 79.9642 21.1011C79.9642 20.8976 79.909 20.7374 79.7987 20.6205C79.6884 20.5035 79.5179 20.4298 79.2872 20.3992L77.9933 20.2009C77.8028 20.1704 77.6648 20.0788 77.5796 19.9263C77.4943 19.7737 77.4517 19.555 77.4517 19.2702V9.76478H78.5199C79.0816 9.76478 79.4928 9.66815 79.7536 9.47489C80.0144 9.28163 80.1448 9.03242 80.1448 8.72727C80.1448 8.52384 80.0821 8.37381 79.9567 8.27718C79.8313 8.18055 79.6533 8.13223 79.4226 8.13223H77.1943L77.1805 8.05221C77.1399 7.856 77.0587 7.65887 76.9368 7.46083L76.8725 7.36173C76.6468 7.03115 76.3685 6.69549 76.0375 6.35474C75.7065 6.01399 75.3755 5.65798 75.0445 5.28671C74.7135 4.91545 74.4352 4.51621 74.2095 4.089C73.9839 3.66179 73.871 3.20407 73.871 2.71583C73.871 2.23776 73.9663 1.87158 74.1569 1.61729C74.3474 1.363 74.6283 1.23586 74.9994 1.23586C75.2903 1.23586 75.5059 1.31977 75.6463 1.4876C75.7867 1.65544 75.8569 1.91736 75.8569 2.27336V3.63128C75.8569 4.40432 76.0776 5.02479 76.5189 5.49269C76.9602 5.96058 77.542 6.19453 78.2641 6.19453C78.9161 6.19453 79.4502 5.99364 79.8664 5.59186C80.2827 5.19008 80.4908 4.58741 80.4908 3.78385C80.4908 3.10235 80.3153 2.47425 79.9642 1.89955C79.6132 1.32486 79.0841 0.86459 78.377 0.518754C77.6699 0.172918 76.7797 0 75.7065 0C74.0415 0 72.7577 0.399237 71.855 1.19771C70.9523 1.99619 70.501 3.06167 70.501 4.39415C70.501 4.95359 70.5762 5.42403 70.7266 5.80547C70.8771 6.1869 71.0476 6.51494 71.2382 6.78957C71.4287 7.06421 71.5992 7.31087 71.7497 7.52956C71.8625 7.69358 71.933 7.86475 71.9613 8.04307L71.9716 8.13223H70.6514C70.4583 8.13223 70.3017 8.17701 70.1816 8.26657L70.1324 8.30769C70.007 8.42467 69.9443 8.5747 69.9443 8.75779C69.9443 8.94088 69.9944 9.09599 70.0947 9.22314C70.195 9.35029 70.3605 9.4698 70.5912 9.58169L71.4638 9.87158C71.6544 9.95296 71.7848 10.042 71.855 10.1386C71.9252 10.2352 71.9603 10.3547 71.9603 10.4971V19.316C71.9603 19.5804 71.9152 19.7839 71.8249 19.9263C71.7346 20.0687 71.6093 20.1653 71.4488 20.2161L70.8018 20.4145C70.6213 20.4857 70.4884 20.5772 70.4032 20.6891C70.3179 20.801 70.2753 20.9485 70.2753 21.1316C70.2753 21.3452 70.338 21.5105 70.4633 21.6275C70.5887 21.7444 70.7517 21.8029 70.9523 21.8029H79.2571ZM91.0373 21.3605C90.0644 21.8589 88.941 22.1081 87.6672 22.1081C86.263 22.1081 85.0293 21.8156 83.9662 21.2308C82.903 20.6459 82.073 19.8271 81.4762 18.7743C80.8794 17.7215 80.5811 16.5035 80.5811 15.1202C80.5811 13.6656 80.8694 12.3916 81.4461 11.2982C82.0229 10.2047 82.8579 9.35283 83.9511 8.74253C85.0444 8.13223 86.3583 7.82708 87.8929 7.82708C89.1968 7.82708 90.3201 8.08392 91.263 8.59758C92.2058 9.11125 92.9304 9.80801 93.437 10.6879C93.9435 11.5677 94.1967 12.5467 94.1967 13.6249C94.1967 14.0928 94.0714 14.4615 93.8206 14.7311L93.7608 14.7909C93.5136 15.0206 93.1725 15.1354 92.7374 15.1354H85.8597L85.8745 15.2058C86.057 16.0435 86.3687 16.7142 86.8097 17.2181C87.5619 18.0776 88.5649 18.5073 89.8186 18.5073C90.621 18.5073 91.3307 18.3242 91.9475 17.958C92.5643 17.5919 92.9781 17.0833 93.1887 16.4323C93.3091 16.3001 93.4169 16.2111 93.5122 16.1653C93.6075 16.1195 93.6902 16.0966 93.7604 16.0966C93.8607 16.0966 93.946 16.1373 94.0162 16.2187C94.0864 16.3001 94.1215 16.4374 94.1215 16.6306C94.1215 17.6275 93.8507 18.5404 93.3091 19.3694C92.7675 20.1983 92.0102 20.862 91.0373 21.3605ZM85.7028 13.9123C85.6884 13.6783 85.6813 13.435 85.6813 13.1825C85.6813 12.2263 85.7515 11.4736 85.8919 10.9243C86.0323 10.3751 86.2129 9.98601 86.4335 9.75715C86.6542 9.52829 86.8999 9.41386 87.1707 9.41386C87.5218 9.41386 87.8503 9.71392 88.1562 10.314C88.4621 10.9142 88.6151 11.911 88.6151 13.3045C88.6151 13.7317 88.4245 13.9453 88.0433 13.9453H85.7047L85.7028 13.9123ZM105.42 21.3605C104.447 21.8589 103.324 22.1081 102.05 22.1081C100.646 22.1081 99.4123 21.8156 98.3491 21.2308C97.2859 20.6459 96.456 19.8271 95.8592 18.7743C95.2624 17.7215 94.964 16.5035 94.964 15.1202C94.964 13.6656 95.2524 12.3916 95.8291 11.2982C96.4058 10.2047 97.2408 9.35283 98.3341 8.74253C99.4273 8.13223 100.741 7.82708 102.276 7.82708C103.58 7.82708 104.703 8.08392 105.646 8.59758C106.589 9.11125 107.313 9.80801 107.82 10.6879C108.326 11.5677 108.58 12.5467 108.58 13.6249C108.58 14.0928 108.454 14.4615 108.204 14.7311L108.144 14.7909C107.897 15.0206 107.555 15.1354 107.12 15.1354H100.243L100.257 15.2058C100.44 16.0435 100.752 16.7142 101.193 17.2181C101.945 18.0776 102.948 18.5073 104.202 18.5073C105.004 18.5073 105.714 18.3242 106.33 17.958C106.947 17.5919 107.361 17.0833 107.572 16.4323C107.692 16.3001 107.8 16.2111 107.895 16.1653C107.99 16.1195 108.073 16.0966 108.143 16.0966C108.244 16.0966 108.329 16.1373 108.399 16.2187C108.469 16.3001 108.504 16.4374 108.504 16.6306C108.504 17.6275 108.234 18.5404 107.692 19.3694C107.15 20.1983 106.393 20.862 105.42 21.3605ZM100.086 13.9123C100.071 13.6783 100.064 13.435 100.064 13.1825C100.064 12.2263 100.134 11.4736 100.275 10.9243C100.415 10.3751 100.596 9.98601 100.816 9.75715C101.037 9.52829 101.283 9.41386 101.554 9.41386C101.905 9.41386 102.233 9.71392 102.539 10.314C102.845 10.9142 102.998 11.911 102.998 13.3045C102.998 13.7317 102.807 13.9453 102.426 13.9453H100.088L100.086 13.9123ZM118.246 21.6122C118.121 21.7394 117.938 21.8029 117.697 21.8029H110.174C109.954 21.8029 109.781 21.7419 109.655 21.6198C109.53 21.4978 109.467 21.3299 109.467 21.1163C109.467 20.9536 109.505 20.8188 109.58 20.712C109.655 20.6052 109.758 20.506 109.889 20.4145L110.235 20.2772C110.365 20.2161 110.455 20.1195 110.505 19.9873C110.556 19.8551 110.581 19.6364 110.581 19.3312V11.5804C110.581 11.3363 110.553 11.1608 110.498 11.054C110.443 10.9472 110.35 10.8633 110.22 10.8023L109.828 10.7565C109.688 10.6751 109.585 10.5887 109.52 10.4971C109.455 10.4056 109.422 10.2886 109.422 10.1462C109.422 9.98347 109.472 9.83852 109.573 9.71138C109.673 9.58423 109.843 9.47489 110.084 9.38334L114.357 8.14749C114.608 8.04577 114.818 7.97457 114.989 7.93388C115.159 7.8932 115.305 7.87285 115.425 7.87285C115.596 7.87285 115.724 7.93388 115.809 8.05594L115.836 8.10021C115.906 8.22779 115.955 8.43173 115.982 8.71202L116.096 11.0829L116.122 10.9953C116.173 10.8302 116.229 10.6718 116.29 10.52C116.656 9.60966 117.14 8.93325 117.742 8.49078C118.344 8.04832 119.001 7.82708 119.713 7.82708C120.575 7.82708 121.237 8.11697 121.699 8.69676C122.16 9.27654 122.391 10.1564 122.391 11.3363C122.391 12.506 122.15 13.3655 121.669 13.9148C121.187 14.4641 120.565 14.7387 119.803 14.7387C119.061 14.7387 118.512 14.5505 118.156 14.1742C117.8 13.7978 117.612 13.2638 117.592 12.5722L117.577 11.9619C117.567 11.7279 117.521 11.5448 117.441 11.4126C117.361 11.2804 117.231 11.2142 117.05 11.2142C116.869 11.2142 116.711 11.3083 116.576 11.4965C116.441 11.6847 116.338 11.972 116.268 12.3586C116.197 12.7451 116.162 13.2384 116.162 13.8385V19.2092C116.162 19.494 116.207 19.7203 116.298 19.8881C116.388 20.0559 116.528 20.1602 116.719 20.2009L117.847 20.4298C118.058 20.4603 118.208 20.5391 118.299 20.6662C118.389 20.7934 118.434 20.9434 118.434 21.1163C118.434 21.3198 118.371 21.4851 118.246 21.6122ZM130.274 22.0776C131.769 22.0776 133.08 21.7673 134.209 21.1469C135.337 20.5264 136.22 19.6847 136.857 18.6217C137.494 17.5588 137.812 16.356 137.812 15.0134C137.812 13.5995 137.506 12.3535 136.894 11.2753C136.282 10.1971 135.43 9.35283 134.337 8.74253C133.243 8.13223 131.965 7.82708 130.5 7.82708C129.026 7.82708 127.722 8.1424 126.588 8.77305C125.455 9.40369 124.567 10.2556 123.926 11.3287C123.284 12.4018 122.963 13.6097 122.963 14.9523C122.963 16.356 123.269 17.5919 123.88 18.6599C124.492 19.7279 125.347 20.5645 126.446 21.1697C127.544 21.775 128.82 22.0776 130.274 22.0776ZM130.508 20.0788C130.804 20.4145 131.107 20.5518 131.418 20.4908C131.729 20.4298 131.962 20.1856 132.117 19.7584C132.273 19.3312 132.338 18.698 132.313 17.8589C132.288 17.0197 132.155 15.9542 131.914 14.6624C131.674 13.3706 131.418 12.328 131.147 11.5346C130.876 10.7413 130.593 10.1767 130.297 9.84107C130.001 9.5054 129.698 9.36809 129.387 9.42912C129.076 9.50032 128.845 9.74952 128.695 10.1767C128.544 10.6039 128.484 11.2346 128.514 12.0687C128.544 12.9027 128.675 13.9657 128.905 15.2575C129.146 16.5493 129.399 17.5919 129.665 18.3853C129.931 19.1786 130.212 19.7432 130.508 20.0788ZM149.743 22.1081C150.585 22.1081 151.277 21.953 151.819 21.6427C152.36 21.3325 152.764 20.9638 153.03 20.5366C153.296 20.1093 153.429 19.7177 153.429 19.3617C153.429 19.2092 153.396 19.082 153.331 18.9803C153.266 18.8786 153.178 18.8277 153.068 18.8277C153.017 18.8277 152.972 18.8379 152.932 18.8582C152.892 18.8786 152.857 18.9091 152.827 18.9498C152.777 19.1329 152.699 19.26 152.594 19.3312C152.488 19.4024 152.375 19.438 152.255 19.438C152.085 19.438 151.957 19.3795 151.871 19.2626C151.786 19.1456 151.744 18.9905 151.744 18.7972V12.0534C151.744 10.7107 151.29 9.67069 150.382 8.93325C149.474 8.1958 148.053 7.82708 146.117 7.82708C144.612 7.82708 143.356 8.01526 142.348 8.39161C141.34 8.76796 140.583 9.24857 140.076 9.83344C139.57 10.4183 139.316 11.0159 139.316 11.6262C139.316 12.2772 139.505 12.773 139.881 13.1138C140.257 13.4545 140.801 13.6249 141.513 13.6249C142.386 13.6249 143.073 13.3884 143.574 12.9154C144.076 12.4425 144.326 11.8296 144.326 11.0769V9.91736C144.326 9.63255 144.414 9.41132 144.59 9.25366C144.765 9.09599 144.983 9.01717 145.244 9.01717C145.525 9.01717 145.748 9.12142 145.914 9.32994C146.079 9.53846 146.162 9.82072 146.162 10.1767L146.161 14.6243L146.082 14.6069C145.84 14.5602 145.559 14.5335 145.241 14.5268L145.079 14.5251C142.922 14.5251 141.315 14.8913 140.257 15.6236C139.199 16.356 138.67 17.3783 138.67 18.6904C138.67 19.6872 139.033 20.506 139.76 21.1469C140.487 21.7877 141.453 22.1081 142.656 22.1081C143.559 22.1081 144.402 21.9224 145.184 21.5512C145.771 21.2727 146.247 20.907 146.614 20.4541L146.635 20.4276L146.657 20.4959C146.773 20.8257 146.985 21.1212 147.293 21.3823L147.388 21.4596C147.945 21.8919 148.73 22.1081 149.743 22.1081ZM144.56 19.232C144.805 19.5626 145.129 19.7279 145.53 19.7279L145.616 19.7249C145.787 19.713 145.953 19.6653 146.113 19.5819L146.161 19.5541V15.6389L146.087 15.616C145.916 15.5702 145.716 15.5474 145.485 15.5474C145.094 15.5474 144.78 15.7305 144.545 16.0966C144.309 16.4628 144.191 17.0019 144.191 17.7139C144.191 18.3954 144.314 18.9015 144.56 19.232ZM160.349 22.1538C162.135 22.1538 163.504 21.7419 164.457 20.918C165.409 20.0941 165.886 18.9701 165.886 17.5461C165.886 16.6815 165.725 15.9237 165.404 15.2727C165.083 14.6217 164.522 14.0445 163.719 13.541C162.917 13.0375 161.789 12.562 160.334 12.1144C159.793 11.9415 159.374 11.7661 159.078 11.588C158.782 11.41 158.579 11.2193 158.469 11.0159C158.358 10.8125 158.303 10.5938 158.303 10.3598C158.303 10.014 158.429 9.73427 158.679 9.52066C158.93 9.30706 159.301 9.20025 159.793 9.20025C160.475 9.20025 161.119 9.42912 161.726 9.88684C162.333 10.3446 163.002 11.1278 163.734 12.2365C163.925 12.4704 164.116 12.6408 164.306 12.7476C164.497 12.8544 164.677 12.8875 164.848 12.8468C165.058 12.7858 165.189 12.6459 165.239 12.4272C165.289 12.2085 165.279 11.8957 165.209 11.4889L164.818 8.6815C164.778 8.38652 164.702 8.178 164.592 8.05594C164.482 7.93388 164.336 7.87285 164.156 7.87285C163.995 7.87285 163.795 7.9288 163.554 8.04069C163.313 8.15257 163.075 8.26701 162.839 8.38398C162.604 8.50095 162.425 8.55944 162.305 8.55944C162.195 8.55944 162.032 8.49841 161.816 8.37635C161.601 8.25429 161.297 8.13223 160.906 8.01017C160.515 7.88811 160.008 7.82708 159.386 7.82708C158.353 7.82708 157.423 8.01526 156.596 8.39161C155.768 8.76796 155.116 9.30451 154.64 10.0013C154.163 10.698 153.925 11.5296 153.925 12.4959C153.925 13.3503 154.103 14.0979 154.459 14.7387C154.815 15.3795 155.359 15.9288 156.092 16.3865C156.824 16.8442 157.747 17.2155 158.86 17.5003C159.582 17.6936 160.136 17.8894 160.522 18.0877C160.908 18.2861 161.174 18.5022 161.32 18.7362C161.465 18.9701 161.538 19.2295 161.538 19.5143C161.538 19.8907 161.412 20.2009 161.162 20.445C160.911 20.6891 160.53 20.8112 160.018 20.8112C159.537 20.8112 159.078 20.7069 158.642 20.4984C158.205 20.2899 157.757 19.9313 157.295 19.4228C156.834 18.9142 156.317 18.2174 155.746 17.3325C155.575 17.0985 155.382 16.9358 155.166 16.8442C154.951 16.7527 154.733 16.7578 154.512 16.8595C154.301 16.9409 154.166 17.1138 154.106 17.3783C154.045 17.6427 154.061 17.9682 154.151 18.3547L154.617 21.391C154.687 21.6961 154.788 21.8996 154.918 22.0013C155.048 22.103 155.189 22.1538 155.339 22.1538C155.51 22.1538 155.718 22.0979 155.964 21.986L156.701 21.6504C156.947 21.5385 157.145 21.4825 157.295 21.4825C157.446 21.4825 157.644 21.5385 157.889 21.6504C158.135 21.7622 158.456 21.8741 158.852 21.986C159.248 22.0979 159.747 22.1538 160.349 22.1538ZM174.612 21.5817C173.95 21.9326 173.168 22.1081 172.265 22.1081C170.74 22.1081 169.594 21.7368 168.827 20.9943C168.06 20.2517 167.676 19.082 167.676 17.4851V10.5887C167.676 10.3751 167.656 10.2123 167.616 10.1004C167.576 9.98856 167.476 9.89701 167.315 9.82581L166.608 9.59695C166.437 9.51558 166.327 9.4164 166.277 9.29943C166.227 9.18245 166.202 9.03751 166.202 8.86459C166.202 8.65098 166.277 8.47552 166.427 8.33821C166.578 8.20089 166.763 8.13223 166.984 8.13223H167.721C167.812 8.13223 167.907 8.09663 168.007 8.02543C168.107 7.95423 168.243 7.81182 168.413 7.59822L171.197 5.26383C171.397 5.01971 171.598 4.83407 171.798 4.70693C171.999 4.57978 172.2 4.51621 172.4 4.51621C172.631 4.51621 172.812 4.58741 172.942 4.72982L172.983 4.7803C173.086 4.92295 173.137 5.1299 173.137 5.40114L173.137 8.13223H176.282C176.503 8.13223 176.673 8.18055 176.793 8.27718C176.914 8.37381 176.974 8.52384 176.974 8.72727C176.974 9.01208 176.849 9.2562 176.598 9.45963L176.542 9.50167C176.289 9.67708 175.906 9.76478 175.394 9.76478H173.137L173.137 16.7222C173.137 17.4851 173.265 18.0496 173.521 18.4158C173.777 18.7819 174.151 18.965 174.642 18.965C174.853 18.965 175.048 18.9193 175.229 18.8277C175.409 18.7362 175.572 18.6167 175.718 18.4692C175.863 18.3217 176.001 18.1564 176.131 17.9733C176.262 17.7902 176.387 17.6071 176.508 17.424C176.608 17.3833 176.696 17.4011 176.771 17.4774C176.846 17.5537 176.879 17.7088 176.869 17.9428C176.798 18.7667 176.57 19.4914 176.184 20.117C175.798 20.7425 175.274 21.2308 174.612 21.5817ZM184.466 22.1081C185.74 22.1081 186.863 21.8589 187.836 21.3605C188.809 20.862 189.567 20.1983 190.108 19.3694C190.65 18.5404 190.921 17.6275 190.921 16.6306C190.921 16.4374 190.885 16.3001 190.815 16.2187C190.745 16.1373 190.66 16.0966 190.56 16.0966C190.489 16.0966 190.407 16.1195 190.311 16.1653C190.216 16.2111 190.108 16.3001 189.988 16.4323C189.777 17.0833 189.363 17.5919 188.747 17.958C188.13 18.3242 187.42 18.5073 186.618 18.5073C185.364 18.5073 184.361 18.0776 183.609 17.2181C183.168 16.7142 182.856 16.0435 182.674 15.2058L182.659 15.1354H189.536C189.972 15.1354 190.313 15.0206 190.56 14.7909L190.62 14.7311C190.87 14.4615 190.996 14.0928 190.996 13.6249C190.996 12.5467 190.743 11.5677 190.236 10.6879C189.73 9.80801 189.005 9.11125 188.062 8.59758C187.119 8.08392 185.996 7.82708 184.692 7.82708C183.157 7.82708 181.843 8.13223 180.75 8.74253C179.657 9.35283 178.822 10.2047 178.245 11.2982C177.669 12.3916 177.38 13.6656 177.38 15.1202C177.38 16.5035 177.679 17.7215 178.275 18.7743C178.872 19.8271 179.702 20.6459 180.765 21.2308C181.828 21.8156 183.062 22.1081 184.466 22.1081ZM182.48 13.1825C182.48 13.435 182.488 13.6783 182.502 13.9123L182.504 13.9453H184.842C185.224 13.9453 185.414 13.7317 185.414 13.3045C185.414 11.911 185.261 10.9142 184.955 10.314C184.649 9.71392 184.321 9.41386 183.97 9.41386C183.699 9.41386 183.453 9.52829 183.233 9.75715C183.012 9.98601 182.831 10.3751 182.691 10.9243C182.551 11.4736 182.48 12.2263 182.48 13.1825ZM200.113 21.8029C200.354 21.8029 200.537 21.7394 200.662 21.6122C200.788 21.4851 200.85 21.3198 200.85 21.1163C200.85 20.9434 200.805 20.7934 200.715 20.6662C200.625 20.5391 200.474 20.4603 200.263 20.4298L199.135 20.2009C198.945 20.1602 198.804 20.0559 198.714 19.8881C198.624 19.7203 198.578 19.494 198.578 19.2092V13.8385C198.578 13.2384 198.614 12.7451 198.684 12.3586C198.754 11.972 198.857 11.6847 198.992 11.4965C199.128 11.3083 199.286 11.2142 199.466 11.2142C199.647 11.2142 199.777 11.2804 199.857 11.4126C199.938 11.5448 199.983 11.7279 199.993 11.9619L200.008 12.5722C200.028 13.2638 200.216 13.7978 200.572 14.1742C200.928 14.5505 201.477 14.7387 202.219 14.7387C202.982 14.7387 203.603 14.4641 204.085 13.9148C204.566 13.3655 204.807 12.506 204.807 11.3363C204.807 10.1564 204.576 9.27654 204.115 8.69676C203.654 8.11697 202.992 7.82708 202.129 7.82708C201.417 7.82708 200.76 8.04832 200.158 8.49078C199.556 8.93325 199.072 9.60966 198.706 10.52C198.645 10.6718 198.589 10.8302 198.539 10.9953L198.512 11.0833L198.398 8.71202C198.371 8.43173 198.323 8.22779 198.252 8.10021L198.225 8.05594C198.14 7.93388 198.012 7.87285 197.841 7.87285C197.721 7.87285 197.575 7.8932 197.405 7.93388C197.234 7.97457 197.024 8.04577 196.773 8.14749L192.5 9.38334C192.26 9.47489 192.089 9.58423 191.989 9.71138C191.888 9.83852 191.838 9.98347 191.838 10.1462C191.838 10.2886 191.871 10.4056 191.936 10.4971C192.001 10.5887 192.104 10.6751 192.245 10.7565L192.636 10.8023C192.766 10.8633 192.859 10.9472 192.914 11.054C192.969 11.1608 192.997 11.3363 192.997 11.5804V19.3312C192.997 19.6364 192.972 19.8551 192.922 19.9873C192.871 20.1195 192.781 20.2161 192.651 20.2772L192.305 20.4145C192.174 20.506 192.072 20.6052 191.996 20.712C191.921 20.8188 191.883 20.9536 191.883 21.1163C191.883 21.3299 191.946 21.4978 192.072 21.6198C192.197 21.7419 192.37 21.8029 192.591 21.8029H200.113ZM215.955 20.918C215.002 21.7419 213.633 22.1538 211.848 22.1538C211.246 22.1538 210.747 22.0979 210.351 21.986C209.955 21.8741 209.634 21.7622 209.388 21.6504C209.143 21.5385 208.944 21.4825 208.794 21.4825C208.644 21.4825 208.445 21.5385 208.2 21.6504L207.462 21.986C207.217 22.0979 207.009 22.1538 206.838 22.1538C206.688 22.1538 206.547 22.103 206.417 22.0013C206.286 21.8996 206.186 21.6961 206.116 21.391L205.65 18.3547C205.559 17.9682 205.544 17.6427 205.604 17.3783C205.665 17.1138 205.8 16.9409 206.011 16.8595C206.231 16.7578 206.449 16.7527 206.665 16.8442C206.881 16.9358 207.074 17.0985 207.244 17.3325C207.816 18.2174 208.333 18.9142 208.794 19.4228C209.255 19.9313 209.704 20.2899 210.14 20.4984C210.577 20.7069 211.036 20.8112 211.517 20.8112C212.029 20.8112 212.41 20.6891 212.661 20.445C212.911 20.2009 213.037 19.8907 213.037 19.5143C213.037 19.2295 212.964 18.9701 212.818 18.7362C212.673 18.5022 212.407 18.2861 212.021 18.0877C211.635 17.8894 211.081 17.6936 210.359 17.5003C209.245 17.2155 208.323 16.8442 207.59 16.3865C206.858 15.9288 206.314 15.3795 205.958 14.7387C205.602 14.0979 205.424 13.3503 205.424 12.4959C205.424 11.5296 205.662 10.698 206.139 10.0013C206.615 9.30451 207.267 8.76796 208.094 8.39161C208.922 8.01526 209.852 7.82708 210.885 7.82708C211.507 7.82708 212.014 7.88811 212.405 8.01017C212.796 8.13223 213.099 8.25429 213.315 8.37635C213.531 8.49841 213.694 8.55944 213.804 8.55944C213.924 8.55944 214.102 8.50095 214.338 8.38398C214.574 8.26701 214.812 8.15257 215.053 8.04069C215.293 7.9288 215.494 7.87285 215.654 7.87285C215.835 7.87285 215.98 7.93388 216.091 8.05594C216.201 8.178 216.276 8.38652 216.316 8.6815L216.708 11.4889C216.778 11.8957 216.788 12.2085 216.738 12.4272C216.688 12.6459 216.557 12.7858 216.347 12.8468C216.176 12.8875 215.995 12.8544 215.805 12.7476C215.614 12.6408 215.424 12.4704 215.233 12.2365C214.501 11.1278 213.831 10.3446 213.225 9.88684C212.618 9.42912 211.973 9.20025 211.291 9.20025C210.8 9.20025 210.429 9.30706 210.178 9.52066C209.927 9.73427 209.802 10.014 209.802 10.3598C209.802 10.5938 209.857 10.8125 209.967 11.0159C210.078 11.2193 210.281 11.41 210.577 11.588C210.873 11.7661 211.291 11.9415 211.833 12.1144C213.287 12.562 214.416 13.0375 215.218 13.541C216.021 14.0445 216.582 14.6217 216.903 15.2727C217.224 15.9237 217.385 16.6815 217.385 17.5461C217.385 18.9701 216.908 20.0941 215.955 20.918Z" fill="white"/>
<path fill-rule="evenodd" clip-rule="evenodd" d="M10.1635 10.618C8.60584 12.1757 7.63386 14.1377 7.42756 16.1441C7.21433 18.1864 7.81801 20.0307 9.12506 21.3365C10.2604 22.4719 11.8015 23.0769 13.5266 23.0769C13.7856 23.0769 14.05 23.0631 14.3172 23.0368C16.3235 22.8291 18.2855 21.8571 19.8431 20.2994C23.0858 17.0565 23.551 12.2477 20.8829 9.57951C18.2162 6.90854 13.4076 7.37655 10.1635 10.618ZM15.6381 16.3158C14.3865 16.6578 13.2359 16.979 12.1725 17.7904C11.3403 18.4265 10.7468 19.2345 10.1465 20.052C9.86993 20.4285 9.59192 20.8071 9.28844 21.1717C9.64012 18.1407 11.1632 15.5362 14.2439 14.6417C14.2919 14.6278 14.3398 14.614 14.3875 14.6001C15.735 14.2102 16.9641 13.8545 18.0847 12.9331C18.8063 12.3398 19.3372 11.6039 19.8713 10.8636C20.1438 10.4859 20.417 10.1072 20.7168 9.74566C20.3499 12.8251 18.7867 15.4517 15.6381 16.3158Z" fill="#0E8784"/>
<path d="M2.19379 2.65706C4.8605 -0.012524 9.66916 0.454098 12.9132 3.69553C13.7772 4.55955 14.4391 5.55371 14.9112 6.60465C13.3605 6.87189 11.8582 7.5199 10.5262 8.4933C10.0195 8.17483 9.46701 7.90206 8.83148 7.7179C7.4289 7.31082 6.15093 6.96466 4.99065 6.00926C3.90236 5.1134 3.24746 3.89077 2.35855 2.82183C2.72408 5.90126 4.28866 8.52791 7.43721 9.39193C7.96889 9.53731 8.47841 9.68685 8.97548 9.86409C7.47459 11.4453 6.486 13.3714 6.14124 15.3749C5.09034 14.9014 4.09482 14.2409 3.23084 13.3769C-0.00770307 10.1341 -0.474308 5.32525 2.19379 2.65706Z" fill="#0E8784"/>
</svg>
